<svg id="Layer_1" data-name="Layer 1" xmlns="http://www.w3.org/2000/svg" viewBox="0 0 397.45 476.62">
  <defs>
    <style>.cls-1{fill:#303030;}.cls-1,.cls-2,.cls-3,.cls-4,.cls-5{stroke:#231f20;stroke-width:4px;}.cls-1,.cls-2,.cls-3,.cls-4,.cls-5,.cls-6{stroke-miterlimit:10;}.cls-2{fill:#d0ebea;}.cls-3,.cls-6{fill:#fff;}.cls-4{fill:#ea9c22;}.cls-5{fill:none;}.cls-6{stroke:#fff;stroke-width:3px;}
    </style>
  </defs><title>snowglobe</title><rect class="cls-1" x="54.77" y="316.29" width="287.92" height="158.33" rx="12" ry="12"/><circle class="cls-2" cx="198.73" cy="198.73" r="196.73"/><path class="cls-3" d="M497.17,364.6C476.23,450.74,398.58,514.69,306,514.69c-91.07,0-167.69-61.88-190.09-145.89" transform="translate(-107.27 -119.24)"/><path class="cls-3" d="M413.76,348.52a43.27,43.27,0,0,0-15.44-53.13,33,33,0,1,0-48.43,0,43.27,43.27,0,0,0-15.44,53.13A54.17,54.17,0,1,0,413.76,348.52Z" transform="translate(-107.27 -119.24)"/><polygon class="cls-4" points="265.48 155.24 241.13 164.76 265.39 164.76 265.48 155.24"/><circle cx="250.22" cy="143.46" r="5.26"/><circle cx="277.96" cy="143.46" r="5.26"/><circle cx="261.56" cy="193.46" r="5.26"/><circle cx="261.56" cy="215.23" r="5.26"/><polyline class="cls-5" points="331.73 160 334.87 172.42 342.69 164.76 334.87 172.42 308.01 198.73"/><polyline class="cls-5" points="185.01 179.36 199.91 179.36 200.97 165 197.82 177.42 190.01 169.76 197.82 177.42 204.91 184.36 224.69 203.73"/><circle class="cls-6" cx="39.5" cy="250.43" r="3.8"/><circle class="cls-6" cx="103.73" cy="249.76" r="3.8"/><circle class="cls-6" cx="189.62" cy="249.76" r="3.8"/><circle class="cls-6" cx="153.32" cy="249.76" r="3.8"/><circle class="cls-6" cx="170.06" cy="249.76" r="3.8"/><circle class="cls-6" cx="128.52" cy="249.76" r="3.8"/><circle class="cls-6" cx="332.62" cy="246.63" r="3.8"/><circle class="cls-6" cx="71.61" cy="249.76" r="3.8"/><circle class="cls-6" cx="248.76" cy="246.63" r="3.8"/><circle class="cls-6" cx="302.39" cy="245.96" r="3.8"/><circle class="cls-6" cx="195.13" cy="250.43" r="3.8"/><circle class="cls-6" cx="179.43" cy="249.76" r="3.8"/><circle class="cls-6" cx="324.79" cy="245.36" r="3.8"/><circle class="cls-6" cx="372.06" cy="246.63" r="3.8"/><circle class="cls-6" cx="51.96" cy="252.96" r="3.8"/><circle class="cls-6" cx="140.92" cy="250.43" r="3.8"/><circle class="cls-6" cx="23.86" cy="254.23" r="3.8"/><circle class="cls-6" cx="87.86" cy="251.56" r="3.8"/><circle class="cls-6" cx="95.79" cy="250.43" r="3.8"/><circle class="cls-6" cx="355.38" cy="245.96" r="3.8"/><circle class="cls-6" cx="352.34" cy="247.76" r="3.8"/><circle class="cls-6" cx="117.62" cy="261.83" r="3.8"/><circle class="cls-6" cx="238.33" cy="253.56" r="3.8"/><circle class="cls-6" cx="294.2" cy="242.16" r="3.8"/><circle class="cls-6" cx="236.07" cy="247.76" r="3.8"/><circle class="cls-6" cx="131.13" cy="369.67" r="3.8" transform="translate(-355.98 152.58) rotate(-56.02)"/><circle class="cls-6" cx="123.17" cy="250.43" r="3.8"/><circle class="cls-6" cx="58.94" cy="249.16" r="3.8"/><circle class="cls-6" cx="306.19" cy="242.16" r="3.8"/><circle class="cls-6" cx="294.2" cy="242.16" r="3.8"/><circle class="cls-6" cx="31.68" cy="253.56" r="3.8"/><circle class="cls-6" cx="78.38" cy="254.23" r="3.8"/><circle class="cls-6" cx="83.85" cy="251.56" r="3.8"/><circle class="cls-6" cx="207.75" cy="247.36" r="3.8"/><circle class="cls-6" cx="174.26" cy="246.63" r="3.8"/><circle class="cls-6" cx="132.65" cy="245.96" r="3.8"/><circle class="cls-6" cx="65.46" cy="245.96" r="3.8"/><circle class="cls-6" cx="328.6" cy="241.56" r="3.8"/><circle class="cls-6" cx="368.26" cy="247.76" r="3.8"/><circle class="cls-6" cx="257" cy="242.16" r="3.8"/><circle class="cls-6" cx="342.48" cy="246.63" r="3.8"/></svg>